<svg xmlns="http://www.w3.org/2000/svg" width="345.6" height="63.8" viewBox="0 0 259.2 47.9"><path fill="hsl(34,60%,67%)" d="m239.1 5a44.7 44.7 0 0 0-21 6.7c-10.3 2.8-20.1 5.2-30.1-.3-.5-.2-1 .5-.5.8 8 5.8 18.2 4.4 27.3 1.4l-2.5 1.5-1.6 1c-5-1.3-8.8 3.6-12.6 6a37.3 37.3 0 0 1-16.2 5.3c-1.8.1-3.5-.3-5.1-1.1-4-6.2-3.7-7.7.8-4.5-.5 0-.4.9.1 1 3.8.2 4-4.6.7-5.6-4.2-1.4-6.8 4-5.1 7.3 2.7 5.6 10.4 4.4 15.3 3 3.5-1 7-2.5 10-4.5 3.6-2.3 6.9-6.5 11.4-6.5-9.3 6-18.7 13-29.3 15.8-7.1-.5-13-3.8-18-9-.4-.4-1 .1-.8.6 3.7 5.5 10 8.6 16.6 8.9-2.4.5-5 .7-7.5.7-8.1-.1-18-3.9-20.2-12.6-1.2-4.4 0-9.2 3.8-11.8 2.1-1.5 4.6-2 7.1-1.3 1.7.6 3.1 1.6 4.1 3.2 1.5 1.7 1 2.9-1.3 3.4.2-.2.2-.5-.1-.7-2.6-1.9-6 .3-5 3.6 1 3.6 5.8 3.3 7.8.6 2.9-3.9 0-9.1-3.8-11-4.2-2.1-9.1-.5-12 3a11.3 11.3 0 0 0-1.4 12.9 20.2 20.2 0 0 1-13.4-9.2c-.5-.6-.8-1.4-.8-2.1-1-2.2.2-3.4 3.6-3.9.5.3 1-.3.6-.7-1.6-1.4-3.7-1.3-5 .5-1.5 2-.9 4.5.2 6.4.6 1 1.2 2 2 3a6.3 6.3 0 0 0-6.5 1.6c-.5.6-.8 1.2-1 2-.2-.7-.5-1.4-1-1.9a6.3 6.3 0 0 0-6.5-1.8c.8-1 1.4-1.9 2-3 1-1.8 1.6-4.4.2-6.3-1.3-1.8-3.4-2-5-.5-.4.4 0 1 .5.7l4 2.6c0 1.1-.3 2-.8 3l-1.4 2a20 20 0 0 1-12 7.6c1.3-3 1.5-6.4 0-10-1.7-4.4-6.4-7.6-11-6.7-4.4.7-8.2 4.6-7.6 9.1.6 3.8 5.7 7 8.4 3.1 2.3-3.2-1.4-6.9-4.5-4.6-.3.2-.3.5-.1.7-2.4-.5-2.8-1.7-1.3-3.4a7.8 7.8 0 0 1 10.3-2.5c4.2 2.2 5.9 7.3 4.9 11.8-1.9 8.8-11.5 12.8-19.6 13.2a35 35 0 0 1-8.4-.7c6.5-.3 13-3.3 16.7-9 .3-.4-.4-.9-.7-.5a27 27 0 0 1-18.2 9c-10.6-2.8-20-9.8-29.2-15.8 4.3 0 7.4 3.8 10.8 6.1 3 2 6.4 3.6 10 4.7 4.9 1.5 13 3 16-2.8 1.5-3.2-.7-8.1-4.7-7.4-3.6.6-3.9 6 .1 5.6.5 0 .7-.8.2-1 4.5-3 4.7-1.6.8 4.6a9.3 9.3 0 0 1-5.1 1c-1.9 0-3.8-.4-5.7-.8a37 37 0 0 1-10.5-4.4c-3.8-2.4-7.6-7.3-12.6-6l-1.6-1-2.5-1.5c9 3 19.3 4.4 27.3-1.4.4-.3 0-1-.5-.8-10 5.5-19.9 3.1-30 .3C33.2 7 23 3 14.4 6a6 6 0 0 0-2.5 1.1c-3.9 2-7 6-6.9 10.5.1 4 2.6 7.6 6.6 8.5.7.1 1-.8.3-1-6-2.4-7.2-9.6-2.8-14.3 2-2 4.6-3.3 7.3-3.8 2.3.4 4.6 1.7 6.4 3.2a7.8 7.8 0 0 1 2.9 4.4c.2 1.3 0 3-.9 4l-1 .8c-2.2 1.1-2.7.4-1.6-2.2.2.4 1 .2.9-.2-.3-3.1-4.5-2.6-4.9.3-.4 4 5 4.6 7.3 2.5 4.7-4.3-.4-11-6.1-13.2h.2c5.9.5 11.4 2.1 16 6 2 1.8 3.7 3.9 5 6.2 1.2 2.3 2 5.2 1.4 7.8l-.8 2c-1.2 2.4-2.8 2.8-4.7 1.2 2.3-2.5-1.3-5.4-3.5-3-1.2 1.5-.7 3.6.6 4.7 2 1.7 5 1 7-.5 5.4-4.6 2-12.5-1.8-16.9a24 24 0 0 0-6.2-5c4.8 1.8 9.3 4.3 13.6 7 6.4 7.3 7 16.2 1.4 24.7-.2.3.3.7.6.4A18.3 18.3 0 0 0 51 21.7c6 7 14.2 12.5 22.4 16.2 4.2 1.9 21.5 9.8 22 .5.1-.7-1-.7-1.1 0-.2 1.3-6.6 2.8-8 2.7l-2.6-.7a64.8 64.8 0 0 1-17.2-7.3A86.4 86.4 0 0 1 48.8 18l-.4-.5C61 25.6 74.1 35.8 90 34.7c7.2-.5 16.1-4.7 19.5-11.3 4.2 0 8.5-2.2 11.6-5.4 1.2-.5 2.5-.8 4-.5 1.7.4 3.4 1.9 3.5 3.8.2 1.8-1 3.6-3 3.4-1 0-1.9-.5-2.1-1.5-.5-1.5 1.4-2.2 2-.8.2.5.9.3 1 0 .5-2.6-3.3-3-4.2-.9-1.3 3 2.2 5.3 4.9 4.4a4 4 0 0 0 2.6-3 4 4 0 0 0 2.6 3c2.6.8 6-1.2 5-4.2-.8-2.3-4.9-2-4.3.6 0 .4.8.6 1 .1.6-1.4 2.4-.7 2 .8-.2.8-1 1.3-1.7 1.5-2.1.5-3.6-1.5-3.4-3.4.1-1.8 1.6-3.2 3.3-3.7 1.5-.4 2.9-.1 4.2.4 3.2 3.2 7.5 5.5 11.8 5.3 2.8 5.1 8.5 9.2 13.8 10.6 15.3 4 29.7-5 41.9-13a570 570 0 0 1 5-3.3l-.2.3a68 68 0 0 1-29 20.6c-2.8 1-15.9 6-16.6 0 0-.8-1.2-.8-1.2 0 .6 9.2 17.9 1.3 22-.6a63.7 63.7 0 0 0 22.5-16.2c-2.8 6.3-2 14.1 2.8 19.5.3.3.8 0 .6-.4-5.6-8.5-5-17.4 1.4-24.7a77 77 0 0 1 13.4-6.9 24 24 0 0 0-6.5 5.4c-3.6 4.4-6.5 12-1.2 16.4 2.9 2.4 10.7.9 7.7-3.8-2-3-6.2-.1-3.8 2.6-1.4 1.5-2.6 1.4-3.5-.1-1-.8-1.7-1.8-2-3-.5-2.3.1-4.5 1-6.6 1.2-2.9 3.2-5.4 5.5-7.4 4.6-4 10-5.6 16-6h.2c-5.8 2.1-10.8 8.8-6 13.1 2.2 2.1 7 1.6 7.1-2.2 0-3-4.5-4-4.8-.7 0 .5.6.7.8.3 1.1 2.3 1 3.1-.6 2.4a2 2 0 0 1-1.6-.8 4 4 0 0 1-1.3-3.5c.1-2.3 1.7-4.2 3.5-5.6 1.7-1.2 3.8-2.3 5.8-2.7 2 .4 3.8 1.1 5.5 2.3 5.9 4 6.4 13-1 15.8-.6.2-.3 1.1.3 1 10-2.1 7.2-14.7.4-18.7l-.7-.3a19 19 0 0 0-8.3-2z"/></svg>