<svg xmlns="http://www.w3.org/2000/svg" width="345.612" height="63.811" viewBox="0 0 259.209 47.858"><g fill="hsl(34,60%,67%)"><path d="M95.727 14.215c-.07.074-.14.152-.211.226-.078.086.043.203.125.125l.23-.207c.098-.09-.054-.242-.144-.144"/><path d="M95.793 15.156c1.121 0 1.133-1.742.012-1.742s-1.133 1.742-.012 1.742"/><path d="M95.477 14.566c-2.864-.472-3.504-1.676-1.922-3.601 1.031-1.524 2.402-2.567 4.117-3.13 2.074-.679 4.32-.41 6.223.622 4.238 2.289 5.875 7.308 4.902 11.844-1.875 8.765-11.527 12.84-19.605 13.164-16.125.648-29.23-10.36-42.118-18.414-9.48-5.926-24.02-13.871-35.23-7.93C8 9.156 4.87 13.047 5.004 17.566c.121 4.032 2.64 7.676 6.645 8.528.668.144.89-.762.277-1.004-6.023-2.36-7.23-9.637-2.809-14.242C13.15 6.644 19.22 6.07 24.684 6.953c8.613 1.395 16.418 5.887 23.66 10.535 12.601 8.082 25.754 18.274 41.601 17.223 10.446-.696 24.844-9.531 19.766-21.985-1.746-4.289-6.375-7.496-11.086-6.675-4.277.746-8.12 4.609-7.476 9.183.535 3.774 5.664 6.903 8.363 3.086 2.27-3.215-1.387-6.89-4.535-4.605-.508.37-.07 1.156.5.851"/><path d="M76.695 32.539c7.895 1.176 16.247-1.926 20.786-8.672.293-.434-.368-.922-.727-.55-5.469 5.695-12.016 9.05-20.031 9.019-.113 0-.149.183-.027.203M48.66 16.562c4.684-.523 7.922 3.657 11.504 6.04a37.879 37.879 0 0 0 9.957 4.703c4.95 1.5 13.137 2.984 16.012-2.848 1.582-3.207-.59-8.059-4.613-7.36-3.617.626-3.91 5.942.117 5.63.5-.04.703-.848.129-.942 4.496-3.133 4.781-1.64.86 4.48a9.294 9.294 0 0 1-5.13 1.114c-1.851-.024-3.84-.434-5.648-.88a37.088 37.088 0 0 1-10.543-4.421c-3.852-2.371-7.707-7.34-12.703-5.96-.235.065-.203.472.058.444"/><path d="M38.403 11.2c10.226 4.28 23.574 8.163 33.457.987.449-.324.058-1.03-.446-.757-10.91 5.976-21.699 2.605-32.875-.555-.191-.055-.328.246-.136.324M11.324 7.902c3.735-2.379 8.36-.32 11.47 2.258 1.41 1.168 2.503 2.621 2.874 4.438.274 1.335.09 2.94-.863 4.02-.352.26-.7.526-1.047.788-2.129 1.121-2.633.379-1.512-2.234.184.383.86.207.817-.219-.293-3.09-4.489-2.598-4.825.324-.468 4.024 4.93 4.653 7.243 2.531 7.156-6.578-8.094-18.425-14.309-12.101-.094.098.031.27.152.195"/><path d="M18.824 6.55c6.204.356 11.93 2 16.715 6.141 1.996 1.727 3.762 3.813 5.008 6.149 1.211 2.273 2.137 5.199 1.457 7.797-.277.652-.555 1.304-.828 1.957-1.297 2.64-3.02 2.894-5.172.765-.184.352.285.758.574.438 2.239-2.485-1.37-5.407-3.554-2.946-1.258 1.414-.739 3.516.597 4.664 1.985 1.704 5.07 1 6.895-.535 5.48-4.617 2.16-12.457-1.723-16.87C33.895 8.542 26.2 5.261 18.781 6.225c-.191.028-.132.313.043.325M44.664 14.516c7.824 7.566 8.906 17.18 2.957 26.238-.234.355.309.77.594.453 7.059-7.879 5.434-21.082-3.402-26.887-.118-.078-.25.098-.149.195"/><path d="M47.934 17.648c5.996 9.008 15.699 15.895 25.469 20.27 4.187 1.87 21.523 9.8 22.05.527.043-.77-1.09-.742-1.18-.008-.152 1.258-6.581 2.79-7.913 2.621-.899-.11-1.832-.426-2.707-.66a64.817 64.817 0 0 1-5.313-1.66 67.345 67.345 0 0 1-11.8-5.617c-7.063-4.239-12.673-9.793-18.305-15.707-.149-.157-.422.05-.301.234M108.29 23.289c6.374.758 12.937-4.133 15.894-9.496 1.066-1.926 1.664-4.45.246-6.38-1.309-1.78-3.473-1.94-5.059-.507-.398.356.117.984.567.727l4.011 2.605c-.058 1.067-.351 2.035-.886 2.906-.371.727-.871 1.38-1.364 2.028a21.01 21.01 0 0 1-4.007 4c-2.868 2.191-5.938 3.18-9.434 3.86-.156.03-.102.241.031.257"/><path d="M119.594 18.637c1.676-.805 3.426-1.532 5.324-1.106 1.817.41 3.434 1.828 3.594 3.75.152 1.86-1.09 3.602-3.07 3.426-.914-.082-1.793-.535-2.07-1.492-.442-1.516 1.433-2.223 2.042-.766.176.426.887.29.977-.129.527-2.508-3.332-2.945-4.235-.808-1.28 3.03 2.278 5.246 4.907 4.367 3.035-1.016 3.625-5.106 1.68-7.383-2.41-2.828-6.801-2.574-9.43-.223-.207.184.058.473.28.364M163.512 14.36l.226.21c.086.074.204-.043.125-.129l-.207-.23c-.09-.094-.242.058-.144.148"/><path d="M163.578 15.156c1.121 0 1.133-1.742.012-1.742s-1.133 1.742-.012 1.742"/><path d="M164.403 13.715c-2.594-1.883-6.09.273-5.07 3.539 1.14 3.656 5.89 3.351 7.866.66 2.86-3.902-.023-9.113-3.824-11.02-4.203-2.105-9.078-.543-11.969 2.965-8.175 9.918 2.961 21.5 12.582 24 15.286 3.973 29.692-4.937 41.887-12.984 8.05-5.313 16.285-10.879 25.762-13.27 5.578-1.406 11.828-1.75 16.746 1.68 5.871 4.098 6.375 12.941-.922 15.805-.617.242-.402 1.148.27 1.008 9.882-2.106 7.191-14.676.367-18.684C236.922.859 221.84 9.09 212.3 15.054c-12.723 7.954-25.484 18.637-41.336 18.422-8.098-.113-17.922-3.875-20.215-12.539-1.164-4.406.016-9.195 3.867-11.867 2.125-1.472 4.559-2.062 7.09-1.238 1.715.566 3.09 1.613 4.125 3.137 1.574 1.922.93 3.12-1.926 3.601.575.301 1-.488.497-.855"/><path d="M182.66 32.336c-8.02.031-14.57-3.328-20.039-9.024-.351-.367-1.011.121-.718.559 4.539 6.742 12.89 9.844 20.785 8.668.113-.016.086-.203-.028-.203M210.778 16.117c-4.989-1.379-8.864 3.598-12.704 5.965a37.27 37.27 0 0 1-10.539 4.414c-1.828.457-3.757.86-5.64.883a9.296 9.296 0 0 1-5.14-1.117c-3.919-6.122-3.63-7.618.862-4.477-.562.094-.386.902.121.941 3.727.29 3.918-4.507.637-5.558-4.195-1.336-6.758 3.984-5.125 7.289 2.766 5.613 10.465 4.394 15.309 3.043a37.642 37.642 0 0 0 10.058-4.496c3.778-2.41 7.23-6.985 12.102-6.442.258.028.3-.379.059-.445"/><path d="M220.844 10.875c-11.188 3.164-21.957 6.539-32.879.555-.508-.278-.887.433-.437.761 9.878 7.172 23.234 3.285 33.453-.992.187-.078.054-.379-.137-.324M248.207 7.707c-6.207-6.32-21.48 5.527-14.3 12.105 2.292 2.102 7.163 1.598 7.226-2.172.05-3.128-4.5-4-4.816-.695-.04.434.632.613.82.223 1.094 2.312.89 3.133-.617 2.46a1.948 1.948 0 0 1-1.598-.843c-1.043-.887-1.437-2.09-1.355-3.441.144-2.352 1.75-4.258 3.558-5.598 3.125-2.309 7.328-4.14 10.934-1.844.12.074.246-.097.148-.195"/><path d="M240.559 6.223c-7.61-.993-15.559 2.535-20.414 8.39-3.64 4.387-6.59 12.05-1.22 16.41 2.88 2.34 10.704.84 7.677-3.808-1.91-2.942-6.25-.137-3.793 2.586.285.316.75-.094.566-.446-1.691 1.922-3.058 2.024-4.094.309-1.02-.75-1.652-1.758-1.902-3.024-.578-2.214.031-4.46.887-6.503 1.207-2.891 3.219-5.407 5.582-7.454 4.773-4.132 10.515-5.777 16.707-6.132.219-.012.21-.301.004-.328M214.57 14.32c-8.84 5.809-10.46 19.012-3.402 26.887.285.316.828-.098.59-.457-5.953-9.067-4.855-18.676 2.96-26.235.099-.097-.03-.273-.148-.195"/><path d="M211.145 17.414c-5.633 5.914-11.242 11.469-18.305 15.71a68.051 68.051 0 0 1-11.145 5.372c-2.843 1.066-15.859 5.977-16.59-.05-.085-.731-1.222-.782-1.179-.009.531 9.285 17.871 1.352 22.055-.523 9.773-4.375 19.472-11.262 25.468-20.27.121-.18-.156-.387-.304-.23M151.125 23.031c-3.496-.68-6.566-1.656-9.441-3.863a21.648 21.648 0 0 1-3.469-3.297c-.582-.7-1.203-1.469-1.648-2.277a4.492 4.492 0 0 1-.817-2.125c-.965-2.13.27-3.407 3.695-3.832.45.257.961-.375.563-.735-1.586-1.43-3.758-1.27-5.063.52-1.406 1.926-.808 4.453.254 6.375 2.957 5.363 9.516 10.246 15.891 9.492.133-.016.191-.227.035-.258"/><path d="M140.067 18.27c-2.594-2.32-6.973-2.614-9.383.163-1.977 2.282-1.442 6.41 1.633 7.446 2.562.86 5.996-1.176 4.98-4.164-.789-2.32-4.855-2.004-4.305.601.086.422.797.563.98.13.606-1.454 2.477-.75 2.04.765-.234.808-.942 1.285-1.711 1.465-2.11.484-3.586-1.438-3.43-3.387.149-1.832 1.617-3.207 3.332-3.684 1.992-.558 3.813.18 5.582 1.032.227.109.493-.18.282-.368"/></g></svg>
